# xmcd
#
# Track frame offsets:
#	150
#	16219
#	32841
#	50141
#	70885
#	89588
#	106542
#	123075
#	142858
#	159678
#	178172
#	195963
#	211120
#	230074
#	247050
#	262913
#	278440
#	297320
#	315010
#	335733
#
# Disc length: 4730
#
# Revision: 3
# Processed by: cddbd v1.5.2PL0 Copyright (c) Steve Scherf et al.
# Submitted via: Broken X Disk Manager 4.02.2262
#
DISCID=16127814
DTITLE=Various Artsts (lambada) - The Best Hits Of 90.s vol.2 cd2
DYEAR=2004
DGENRE=Disco
TTITLE0=Brithney Spears - Ooops!... I Did It Again
TTITLE1=Backstreet Boys - All I Have To Give
TTITLE2=London Beat - I.ve Been Thinking About You
TTITLE3=Vacuum - I Breathe
TTITLE4=Pet Shop Boys - It.s A sin
TTITLE5=Chilly - Tic Tic Tac
TTITLE6=Modern Talking - You Are Not Alone
TTITLE7=Chris Rea - The Road To Hell part 2
TTITLE8=Army of Lovers - Sexual Revolution
TTITLE9=Ace Of Base - Happy Nation
TTITLE10=The Simpsons - Do The Bartman
TTITLE11=Paul Mc Cartny - Hope Of Deliverance
TTITLE12=Freddie Mercury - Livin on My Own
TTITLE13=Suzanne VEGA - Tom.s Dinner
TTITLE14=Salt .n. Peppa - Lets Talk About Sex
TTITLE15=Kaoma - Lambada
TTITLE16=Duran Duran - Come Undone
TTITLE17=Bobby - Mc Ferryn - Don.t Worry, Be Happy
TTITLE18=Tears of Fear - Laid so low
TTITLE19=Sinead o Connor - Nothing Compares 2u
EXTD=
EXTT0=
EXTT1=
EXTT2=
EXTT3=
EXTT4=
EXTT5=
EXTT6=
EXTT7=
EXTT8=
EXTT9=
EXTT10=
EXTT11=
EXTT12=
EXTT13=
EXTT14=
EXTT15=
EXTT16=
EXTT17=
EXTT18=
EXTT19=
PLAYORDER=
